<?xml version="1.0" encoding="UTF-8"?>
<svg width="502px" height="76px" viewBox="0 0 502 76" version="1.1" xmlns="http://www.w3.org/2000/svg" xmlns:xlink="http://www.w3.org/1999/xlink">
    <!-- Generator: Sketch 51.3 (57544) - http://www.bohemiancoding.com/sketch -->
    <title>Group 24 Copy</title>
    <desc>Created with Sketch.</desc>
    <defs></defs>
    <g id="Page-1" stroke="none" stroke-width="1" fill="none" fill-rule="evenodd">
        <g id="Group-24-Copy">
            <path d="M42.045,21.813 C52.055,21.813 56.829,26.51 56.829,37.752 L56.829,53.845 C56.829,54.461 56.29,55 55.674,55 L46.357,55 C45.741,55 45.279,54.461 45.279,53.845 L45.279,36.674 C45.279,32.901 43.277,30.36 39.889,30.36 C36.501,30.36 34.422,32.978 34.345,36.135 L34.345,53.845 C34.345,54.538 33.883,55 33.19,55 L23.873,55 C23.18,55 22.795,54.538 22.795,53.845 L22.795,36.905 C22.795,32.901 21.101,30.36 17.636,30.36 C14.171,30.36 11.938,32.901 11.861,35.981 L11.938,53.845 C11.938,54.538 11.553,55 10.86,55 L1.543,55 C0.85,55 0.388,54.538 0.388,53.845 L0.388,23.738 C0.388,23.045 0.927,22.429 1.543,22.429 L9.628,22.429 C10.321,22.429 10.783,22.968 11.014,23.738 L11.784,26.048 C14.094,23.584 17.328,21.813 21.332,21.813 C25.952,21.813 29.417,23.43 31.65,26.356 C34.345,23.892 38.118,21.813 42.045,21.813 Z M79.852,21.813 C91.248,21.813 96.484,28.897 96.484,40.447 C96.484,41.14 95.868,41.602 95.329,41.602 L73.769,41.602 C74.693,45.221 77.465,47.608 80.622,47.608 C84.549,47.608 87.552,46.222 89.246,44.913 C89.708,44.528 90.401,44.528 90.863,45.144 L94.251,49.225 C94.713,49.841 94.713,50.38 94.251,50.842 C91.017,53.845 85.319,55.616 80.006,55.616 C70.766,55.616 62.835,48.609 62.835,38.83 C62.835,28.666 71.382,21.813 79.852,21.813 Z M79.852,29.59 C76.464,29.59 74.462,31.977 73.769,35.519 L85.704,35.519 C85.088,32.439 83.163,29.59 79.852,29.59 Z M117.967,21.813 C129.363,21.813 134.599,28.897 134.599,40.447 C134.599,41.14 133.983,41.602 133.444,41.602 L111.884,41.602 C112.808,45.221 115.58,47.608 118.737,47.608 C122.664,47.608 125.667,46.222 127.361,44.913 C127.823,44.528 128.516,44.528 128.978,45.144 L132.366,49.225 C132.828,49.841 132.828,50.38 132.366,50.842 C129.132,53.845 123.434,55.616 118.121,55.616 C108.881,55.616 100.95,48.609 100.95,38.83 C100.95,28.666 109.497,21.813 117.967,21.813 Z M117.967,29.59 C114.579,29.59 112.577,31.977 111.884,35.519 L123.819,35.519 C123.203,32.439 121.278,29.59 117.967,29.59 Z M165.707,51.612 C165.707,51.766 166.092,52.69 165.245,53.152 C163.397,54.23 159.547,55.616 154.234,55.616 C146.303,55.616 143.685,50.534 143.454,44.22 L143.377,44.22 L143.377,31.207 L140.451,31.207 C139.835,31.207 139.373,30.745 139.373,29.975 L139.373,23.738 C139.373,22.968 139.835,22.429 140.451,22.429 L143.377,22.429 L143.377,14.344 C143.377,13.651 143.839,13.189 144.532,13.189 L153.772,13.189 C154.388,13.189 154.927,13.651 154.927,14.344 L154.927,22.429 L161.934,22.429 C162.55,22.429 163.089,22.968 163.089,23.738 L163.089,29.975 C163.089,30.745 162.55,31.207 161.934,31.207 L154.927,31.207 L154.927,42.911 C154.927,45.529 155.697,46.915 158.084,46.915 C159.47,46.915 160.933,46.376 161.934,45.606 C162.011,45.529 162.935,45.144 163.474,46.068 L165.707,51.612 Z M177.642,13.266 C174.177,13.266 171.328,10.494 171.328,7.106 C171.328,3.564 174.177,0.792 177.642,0.792 C181.03,0.792 183.879,3.564 183.879,7.106 C183.879,10.494 181.03,13.266 177.642,13.266 Z M173.022,55 C172.406,55 171.867,54.538 171.867,53.922 L171.867,23.738 C171.867,22.968 172.406,22.429 173.022,22.429 L182.262,22.429 C182.955,22.429 183.417,22.968 183.417,23.738 L183.417,53.922 C183.417,54.538 182.955,55 182.262,55 L173.022,55 Z M212.831,21.813 C223.534,21.813 227.615,27.819 227.615,36.289 L227.615,53.845 C227.615,54.615 226.845,55 226.383,55 L217.22,55 C216.45,55 216.065,54.615 216.065,53.845 L216.065,36.751 C216.065,33.132 214.063,30.36 209.982,30.36 C206.055,30.36 203.437,33.132 203.437,36.058 L203.437,53.845 C203.437,54.615 203.052,55 202.282,55 L192.965,55 C192.195,55 191.887,54.615 191.887,53.845 L191.887,23.738 C191.887,23.199 192.195,22.429 192.965,22.429 L201.512,22.429 C201.974,22.429 202.436,22.968 202.667,23.738 L203.437,26.048 L203.437,26.125 C205.978,23.584 209.366,21.813 212.831,21.813 Z M267.193,22.429 C267.809,22.429 268.271,22.968 268.271,23.661 L268.271,58.542 C268.271,68.706 260.417,75.251 249.714,75.251 C243.708,75.251 238.241,72.633 235.392,68.475 C235.084,68.09 235.238,67.397 235.546,67.089 L239.935,62.854 C240.474,62.392 241.167,62.623 241.398,63.008 C243.477,65.78 245.941,66.858 249.714,66.858 C253.333,66.858 257.645,64.548 257.645,58.773 L257.645,52.69 C255.412,54.538 252.486,55.616 248.713,55.616 C238.318,55.616 233.621,47.608 233.621,38.676 C233.621,29.128 238.857,21.813 248.636,21.813 C252.486,21.813 255.412,22.891 257.645,24.816 L258.492,23.661 C258.954,23.045 259.724,22.429 260.34,22.429 L267.193,22.429 Z M250.638,47.223 C255.643,47.223 256.952,43.604 256.952,38.83 C256.952,34.21 255.72,30.36 250.561,30.36 C246.403,30.36 244.247,33.979 244.247,38.753 C244.247,43.527 246.557,47.223 250.638,47.223 Z M301.918,23.122 C302.688,23.661 302.457,24.277 302.38,24.431 L298.915,30.976 C298.607,31.438 298.068,31.669 297.452,31.361 C296.528,30.745 295.219,30.052 293.602,30.052 C290.83,30.052 288.751,32.208 288.751,35.75 L288.751,53.845 C288.751,54.538 288.212,55 287.596,55 L278.356,55 C277.663,55 277.201,54.538 277.201,53.845 L277.201,23.738 C277.201,22.968 277.663,22.429 278.356,22.429 L284.208,22.429 C284.978,22.429 285.671,23.199 286.21,23.892 L287.134,24.97 C289.213,22.968 292.139,21.813 295.758,21.813 C298.761,21.813 300.84,22.506 301.918,23.122 Z M321.938,55.616 C312.159,55.616 304.459,48.07 304.459,38.83 C304.459,29.436 312.159,21.813 321.938,21.813 C331.64,21.813 339.34,29.436 339.34,38.83 C339.34,48.07 331.64,55.616 321.938,55.616 Z M321.938,47.223 C325.557,47.223 328.791,44.374 328.791,38.83 C328.791,33.209 325.557,30.36 321.938,30.36 C318.242,30.36 315.085,33.209 315.085,38.83 C315.085,44.374 318.242,47.223 321.938,47.223 Z M361.901,55.616 C352.122,55.616 344.422,48.07 344.422,38.83 C344.422,29.436 352.122,21.813 361.901,21.813 C371.603,21.813 379.303,29.436 379.303,38.83 C379.303,48.07 371.603,55.616 361.901,55.616 Z M361.901,47.223 C365.52,47.223 368.754,44.374 368.754,38.83 C368.754,33.209 365.52,30.36 361.901,30.36 C358.205,30.36 355.048,33.209 355.048,38.83 C355.048,44.374 358.205,47.223 361.901,47.223 Z M427.582,21.813 C437.592,21.813 442.366,26.51 442.366,37.752 L442.366,53.845 C442.366,54.461 441.827,55 441.211,55 L431.894,55 C431.278,55 430.816,54.461 430.816,53.845 L430.816,36.674 C430.816,32.901 428.814,30.36 425.426,30.36 C422.038,30.36 419.959,32.978 419.882,36.135 L419.882,53.845 C419.882,54.538 419.42,55 418.727,55 L409.41,55 C408.717,55 408.332,54.538 408.332,53.845 L408.332,36.905 C408.332,32.901 406.638,30.36 403.173,30.36 C399.708,30.36 397.475,32.901 397.398,35.981 L397.475,53.845 C397.475,54.538 397.09,55 396.397,55 L387.08,55 C386.387,55 385.925,54.538 385.925,53.845 L385.925,23.738 C385.925,23.045 386.464,22.429 387.08,22.429 L395.165,22.429 C395.858,22.429 396.32,22.968 396.551,23.738 L397.321,26.048 C399.631,23.584 402.865,21.813 406.869,21.813 C411.489,21.813 414.954,23.43 417.187,26.356 C419.882,23.892 423.655,21.813 427.582,21.813 Z" id="meetingroom" fill="#2F3A59"></path>
            <path d="M466.32,25.03 C466.32,28 464.67,31.24 458.85,31.24 L458.82,31.24 C453.27,31.24 451.32,28 451.32,25.39 C451.32,25.09 451.41,24.88 451.77,24.88 L455.31,24.88 C455.46,24.88 455.73,24.97 455.73,25.24 C455.76,26.47 456.87,27.16 458.82,27.19 C460.65,27.16 461.88,26.44 461.88,24.82 C461.88,22.87 461.1,22.51 458.04,22.51 L457.23,22.51 C456.99,22.51 456.78,22.33 456.78,22.09 L456.78,18.88 C456.78,18.64 456.99,18.46 457.23,18.46 L458.04,18.46 C461.07,18.46 461.52,17.92 461.52,16.06 C461.52,14.44 460.53,13.84 458.82,13.81 C456.87,13.84 455.76,14.59 455.73,15.76 C455.73,16.03 455.46,16.12 455.31,16.12 L451.77,16.12 C451.41,16.12 451.32,15.91 451.32,15.61 C451.32,13 453.27,9.76 458.82,9.76 L458.85,9.76 C464.4,9.76 465.96,12.94 465.96,15.82 C465.96,18.76 464.49,19.9 463.47,20.35 C464.61,20.8 466.32,21.97 466.32,25.03 Z M477.21,16.96 C481.29,16.96 483.96,20.11 483.96,23.89 C483.96,28.24 480.57,31.24 476.76,31.24 C474.06,31.24 471.9,29.86 470.64,27.85 C470.28,27.34 468.96,25.27 468.96,21.04 C468.96,14.2 472.02,9.76 476.91,9.76 C481.08,9.76 483.21,12.85 483.24,15.07 C483.24,15.4 483.21,15.55 482.91,15.55 L479.31,15.55 C479.04,15.55 478.92,15.37 478.83,15.19 C478.62,14.65 478.17,13.81 476.67,13.81 C474.66,13.81 473.43,15.31 473.34,18.4 C474.15,17.56 475.41,16.96 477.21,16.96 Z M476.82,27.19 C478.38,27.19 479.64,25.75 479.67,23.92 C479.64,22 478.26,20.62 476.79,20.62 C475.23,20.62 473.85,22 473.85,23.86 C473.85,25.6 474.96,27.19 476.82,27.19 Z M501.6,24.1 C501.6,27.49 499.92,31.24 494.07,31.24 C494.04,31.24 494.04,31.24 494.04,31.24 C488.67,31.24 486.6,27.91 486.6,25.39 C486.6,25.09 486.69,24.88 487.05,24.88 L490.53,24.88 C490.68,24.88 490.95,25 490.95,25.24 C491.01,26.2 492.09,27.19 494.04,27.19 C495.93,27.19 497.16,26.02 497.16,24.01 C497.16,20.71 494.07,19.72 490.92,21.91 C490.68,22.06 490.35,22 490.35,22 L487.02,21.34 C486.78,21.28 486.66,21.13 486.69,20.89 L488.34,10.42 C488.37,10.18 488.55,10 488.79,10 L499.95,10 C500.19,10 500.4,10.18 500.4,10.42 L500.4,13.63 C500.4,13.87 500.19,14.05 499.95,14.05 L491.82,14.08 L491.25,17.83 C496.2,15.79 501.6,18.07 501.6,24.1 Z" id="365-copy-6" fill="#FF3F36"></path>
        </g>
    </g>
</svg>